<?xml version="1.0" encoding="UTF-8"?>
<svg version="1.1" xmlns="http://www.w3.org/2000/svg" width="980" height="980">
<path d="M0 0 C0.96895203 -0.00133942 1.93790405 -0.00267883 2.93621826 -0.00405884 C17.02276586 0.00011466 31.01848563 0.46493155 45.0625 1.5625 C45.835867 1.62135376 46.60923401 1.68020752 47.40603638 1.74084473 C79.07176902 4.21677843 110.92023345 10.90171963 140.9375 21.25 C141.8150293 21.55164063 142.69255859 21.85328125 143.59667969 22.1640625 C177.77951742 34.02021771 209.29359305 50.31921892 237.43359375 73.21875 C239.07631882 74.55138188 240.73490468 75.86474484 242.41015625 77.15625 C250.97689739 83.87526266 258.48787241 91.61271307 266.09741211 99.37817383 C267.40869261 100.71207161 268.73717916 102.02914649 270.0769043 103.33447266 C272.15032082 105.46910408 273.42941877 107.69095024 274.9375 110.25 C276.2871246 111.91670508 277.6643256 113.56130791 279.0625 115.1875 C283.85577061 120.98130768 287.88976883 127.05214368 291.82128906 133.44384766 C292.90402719 135.1958373 294.00854526 136.93229121 295.1171875 138.66796875 C310.27699713 162.75864102 320.22901809 189.51355215 327.625 216.875 C327.91032593 217.90995605 327.91032593 217.90995605 328.20141602 218.96582031 C331.75005667 232.4924035 333.52352173 246.33701752 334.625 260.25 C334.68787201 261.02681122 334.75074402 261.80362244 334.81552124 262.60397339 C337.01543382 290.48042508 336.83660605 318.62069129 334.19775391 346.45947266 C333.97082735 348.89265329 333.78007939 351.32437589 333.60546875 353.76171875 C330.96719342 386.59144353 321.12081361 420.40774669 309.9375 451.25 C309.65616211 452.03213867 309.37482422 452.81427734 309.08496094 453.62011719 C295.17828358 491.97974394 277.16763791 529.97121356 254.9375 564.25 C254.03585511 565.65977063 253.13476541 567.06989658 252.234375 568.48046875 C238.77739223 589.43060331 224.51075394 609.81399234 208.9375 629.25 C208.22980469 630.14074219 207.52210938 631.03148437 206.79296875 631.94921875 C204.85014579 634.39020144 202.89586361 636.8214737 200.9375 639.25 C200.1846875 640.18972656 199.431875 641.12945313 198.65625 642.09765625 C192.12321963 650.18772553 192.12321963 650.18772553 188.4375 653.75 C185.751161 656.063661 185.751161 656.063661 184.9375 659.25 C183.79795781 660.44055466 182.65037108 661.62455254 181.46151733 662.76586914 C179.77213122 664.41104076 178.16487701 666.1160928 176.55786133 667.84179688 C167.47015406 677.5817916 158.22836635 687.14549422 148.80834961 696.56445312 C146.60307292 698.77194915 144.40598751 700.9873981 142.20898438 703.203125 C135.45447668 709.98379426 128.72109754 716.52643289 121.19750977 722.45556641 C118.1552728 724.8710835 115.36342173 727.50088233 112.5625 730.1875 C107.38900578 735.04974838 101.9913861 739.42935848 96.31640625 743.6875 C93.28863925 745.96254653 90.34035317 748.32551459 87.39892578 750.71069336 C79.78882768 756.87958877 71.99012596 762.67402353 63.9375 768.25 C62.8544458 769.00216797 62.8544458 769.00216797 61.74951172 769.76953125 C17.01728061 800.77935117 -30.27363425 827.45488855 -81.0625 847.25 C-82.04186523 847.63607422 -83.02123047 848.02214844 -84.03027344 848.41992188 C-132.85595432 867.604408 -184.71354388 881.52816587 -237.0625 886.25 C-238.13677246 886.35151367 -239.21104492 886.45302734 -240.31787109 886.55761719 C-332.39860076 894.98782406 -429.61352149 877.81784814 -528.7578125 809.1171875 C-531.05359317 807.25721604 -533.39499764 805.47159269 -535.75 803.6875 C-539.21383122 801.00758847 -542.28355909 798.1376975 -545.32421875 794.9921875 C-547.12449099 793.18786971 -549.00148958 791.53225547 -550.9375 789.875 C-558.65211371 783.18602858 -565.46511116 775.92191321 -571.77001953 767.89306641 C-572.6747743 766.74289647 -573.58508217 765.59708303 -574.49951172 764.45458984 C-583.95204205 752.6275984 -592.22205318 740.19574237 -600.0625 727.25 C-600.53316895 726.47543457 -601.00383789 725.70086914 -601.48876953 724.90283203 C-609.07422688 712.26784258 -614.63197349 698.92365589 -620.0625 685.25 C-620.58199961 683.97601782 -621.10260876 682.70248671 -621.625 681.4296875 C-629.80573144 661.02898847 -634.17980332 639.36993603 -637.3125 617.6875 C-637.47564697 616.55916748 -637.63879395 615.43083496 -637.80688477 614.26831055 C-639.72448306 600.3287283 -640.26950344 586.48557171 -640.25 572.4375 C-640.24939575 571.62741486 -640.2487915 570.81732971 -640.24816895 569.98269653 C-640.1718351 532.06106591 -635.22195443 493.56576061 -624.0625 457.25 C-623.64726074 455.89116699 -623.64726074 455.89116699 -623.22363281 454.50488281 C-613.28007334 422.20175178 -601.92284938 390.17331645 -586.0625 360.25 C-585.53285645 359.24001953 -585.00321289 358.23003906 -584.45751953 357.18945312 C-569.0353978 327.81158907 -551.7500404 299.96737419 -532.33447266 273.03466797 C-531.43915468 271.77847327 -530.56000386 270.51067681 -529.69287109 269.23486328 C-528.53011354 267.53975889 -527.30157837 265.89014292 -526.0625 264.25 C-525.4025 264.25 -524.7425 264.25 -524.0625 264.25 C-523.959375 263.651875 -523.85625 263.05375 -523.75 262.4375 C-522.94554636 259.87787479 -521.96578275 259.10881353 -520.0625 257.25 C-518.90086067 255.82524236 -517.75697352 254.38593924 -516.625 252.9375 C-508.91601677 243.24137484 -500.80162572 233.9047639 -492.33496094 224.86401367 C-489.81029792 222.16543536 -487.35468154 219.43009928 -484.953125 216.62109375 C-480.44388764 211.44443749 -475.58139464 206.61907486 -470.7199707 201.77709961 C-469.12791034 200.19040054 -467.5412701 198.59842258 -465.95507812 197.00585938 C-460.49547996 191.54263859 -454.93995191 186.2652794 -449.0625 181.25 C-447.22380852 179.5892464 -445.3898443 177.92323092 -443.5625 176.25 C-439.10903773 172.19307889 -434.62777935 168.18053462 -430.0625 164.25 C-429.14339844 163.45207031 -428.22429687 162.65414062 -427.27734375 161.83203125 C-419.17353812 154.84807564 -410.76595559 148.31254953 -402.22216797 141.87744141 C-400.10398993 140.28126519 -397.99106598 138.67834665 -395.87890625 137.07421875 C-383.06835806 127.37074073 -369.88100256 118.36290184 -356.34228516 109.70898438 C-354.0201973 108.22292772 -351.70355078 106.72860906 -349.38671875 105.234375 C-339.68820906 99.00910851 -329.86012878 93.15733233 -319.71728516 87.68701172 C-316.72435498 86.06696509 -313.74352905 84.42557527 -310.76171875 82.78515625 C-234.49768844 41.08295242 -150.400592 14.33795352 -39.99975586 1.42236328 C-37.85371639 1.29642995 -35.70876537 1.15154314 -33.56469727 0.99560547 C-22.37499484 0.20707176 -11.21574504 0.00924658 0 0 Z " fill="#012B81" transform="translate(640.0625,48.75)"/>
<path d="M0 0 C0.96895203 -0.00133942 1.93790405 -0.00267883 2.93621826 -0.00405884 C17.02276586 0.00011466 31.01848563 0.46493155 45.0625 1.5625 C45.835867 1.62135376 46.60923401 1.68020752 47.40603638 1.74084473 C79.07176902 4.21677843 110.92023345 10.90171963 140.9375 21.25 C141.8150293 21.55164063 142.69255859 21.85328125 143.59667969 22.1640625 C177.77951742 34.02021771 209.29359305 50.31921892 237.43359375 73.21875 C239.07631882 74.55138188 240.73490468 75.86474484 242.41015625 77.15625 C250.97689739 83.87526266 258.48787241 91.61271307 266.09741211 99.37817383 C267.40869261 100.71207161 268.73717916 102.02914649 270.0769043 103.33447266 C272.15032082 105.46910408 273.42941877 107.69095024 274.9375 110.25 C276.2871246 111.91670508 277.6643256 113.56130791 279.0625 115.1875 C283.85577061 120.98130768 287.88976883 127.05214368 291.82128906 133.44384766 C292.90402719 135.1958373 294.00854526 136.93229121 295.1171875 138.66796875 C310.27699713 162.75864102 320.22901809 189.51355215 327.625 216.875 C327.91032593 217.90995605 327.91032593 217.90995605 328.20141602 218.96582031 C331.75005667 232.4924035 333.52352173 246.33701752 334.625 260.25 C334.68787201 261.02681122 334.75074402 261.80362244 334.81552124 262.60397339 C337.01543382 290.48042508 336.83660605 318.62069129 334.19775391 346.45947266 C333.97082735 348.89265329 333.78007939 351.32437589 333.60546875 353.76171875 C330.96719342 386.59144353 321.12081361 420.40774669 309.9375 451.25 C309.65616211 452.03213867 309.37482422 452.81427734 309.08496094 453.62011719 C295.17828358 491.97974394 277.16763791 529.97121356 254.9375 564.25 C254.03585511 565.65977063 253.13476541 567.06989658 252.234375 568.48046875 C238.77739223 589.43060331 224.51075394 609.81399234 208.9375 629.25 C208.22980469 630.14074219 207.52210938 631.03148437 206.79296875 631.94921875 C204.85014579 634.39020144 202.89586361 636.8214737 200.9375 639.25 C200.1846875 640.18972656 199.431875 641.12945313 198.65625 642.09765625 C192.12321963 650.18772553 192.12321963 650.18772553 188.4375 653.75 C185.751161 656.063661 185.751161 656.063661 184.9375 659.25 C183.79795781 660.44055466 182.65037108 661.62455254 181.46151733 662.76586914 C179.77213122 664.41104076 178.16487701 666.1160928 176.55786133 667.84179688 C167.47015406 677.5817916 158.22836635 687.14549422 148.80834961 696.56445312 C146.60307292 698.77194915 144.40598751 700.9873981 142.20898438 703.203125 C135.45447668 709.98379426 128.72109754 716.52643289 121.19750977 722.45556641 C118.1552728 724.8710835 115.36342173 727.50088233 112.5625 730.1875 C107.38900578 735.04974838 101.9913861 739.42935848 96.31640625 743.6875 C93.28863925 745.96254653 90.34035317 748.32551459 87.39892578 750.71069336 C79.78882768 756.87958877 71.99012596 762.67402353 63.9375 768.25 C62.8544458 769.00216797 62.8544458 769.00216797 61.74951172 769.76953125 C17.01728061 800.77935117 -30.27363425 827.45488855 -81.0625 847.25 C-82.04186523 847.63607422 -83.02123047 848.02214844 -84.03027344 848.41992188 C-132.85595432 867.604408 -184.71354388 881.52816587 -237.0625 886.25 C-238.13677246 886.35151367 -239.21104492 886.45302734 -240.31787109 886.55761719 C-332.39860076 894.98782406 -429.61352149 877.81784814 -528.7578125 809.1171875 C-531.05359317 807.25721604 -533.39499764 805.47159269 -535.75 803.6875 C-539.21383122 801.00758847 -542.28355909 798.1376975 -545.32421875 794.9921875 C-547.12449099 793.18786971 -549.00148958 791.53225547 -550.9375 789.875 C-558.65211371 783.18602858 -565.46511116 775.92191321 -571.77001953 767.89306641 C-572.6747743 766.74289647 -573.58508217 765.59708303 -574.49951172 764.45458984 C-583.95204205 752.6275984 -592.22205318 740.19574237 -600.0625 727.25 C-600.53316895 726.47543457 -601.00383789 725.70086914 -601.48876953 724.90283203 C-609.07422688 712.26784258 -614.63197349 698.92365589 -620.0625 685.25 C-620.58199961 683.97601782 -621.10260876 682.70248671 -621.625 681.4296875 C-629.80573144 661.02898847 -634.17980332 639.36993603 -637.3125 617.6875 C-637.47564697 616.55916748 -637.63879395 615.43083496 -637.80688477 614.26831055 C-639.72448306 600.3287283 -640.26950344 586.48557171 -640.25 572.4375 C-640.24939575 571.62741486 -640.2487915 570.81732971 -640.24816895 569.98269653 C-640.1718351 532.06106591 -635.22195443 493.56576061 -624.0625 457.25 C-623.64726074 455.89116699 -623.64726074 455.89116699 -623.22363281 454.50488281 C-613.28007334 422.20175178 -601.92284938 390.17331645 -586.0625 360.25 C-585.53285645 359.24001953 -585.00321289 358.23003906 -584.45751953 357.18945312 C-569.0353978 327.81158907 -551.7500404 299.96737419 -532.33447266 273.03466797 C-531.43915468 271.77847327 -530.56000386 270.51067681 -529.69287109 269.23486328 C-528.53011354 267.53975889 -527.30157837 265.89014292 -526.0625 264.25 C-525.4025 264.25 -524.7425 264.25 -524.0625 264.25 C-523.959375 263.651875 -523.85625 263.05375 -523.75 262.4375 C-522.94554636 259.87787479 -521.96578275 259.10881353 -520.0625 257.25 C-518.90086067 255.82524236 -517.75697352 254.38593924 -516.625 252.9375 C-508.91601677 243.24137484 -500.80162572 233.9047639 -492.33496094 224.86401367 C-489.81029792 222.16543536 -487.35468154 219.43009928 -484.953125 216.62109375 C-480.44388764 211.44443749 -475.58139464 206.61907486 -470.7199707 201.77709961 C-469.12791034 200.19040054 -467.5412701 198.59842258 -465.95507812 197.00585938 C-460.49547996 191.54263859 -454.93995191 186.2652794 -449.0625 181.25 C-447.22380852 179.5892464 -445.3898443 177.92323092 -443.5625 176.25 C-439.10903773 172.19307889 -434.62777935 168.18053462 -430.0625 164.25 C-429.14339844 163.45207031 -428.22429687 162.65414062 -427.27734375 161.83203125 C-419.17353812 154.84807564 -410.76595559 148.31254953 -402.22216797 141.87744141 C-400.10398993 140.28126519 -397.99106598 138.67834665 -395.87890625 137.07421875 C-383.06835806 127.37074073 -369.88100256 118.36290184 -356.34228516 109.70898438 C-354.0201973 108.22292772 -351.70355078 106.72860906 -349.38671875 105.234375 C-339.68820906 99.00910851 -329.86012878 93.15733233 -319.71728516 87.68701172 C-316.72435498 86.06696509 -313.74352905 84.42557527 -310.76171875 82.78515625 C-234.49768844 41.08295242 -150.400592 14.33795352 -39.99975586 1.42236328 C-37.85371639 1.29642995 -35.70876537 1.15154314 -33.56469727 0.99560547 C-22.37499484 0.20707176 -11.21574504 0.00924658 0 0 Z M-80.125 47.375 C-81.11799103 47.52584045 -82.11098206 47.67668091 -83.13406372 47.83209229 C-165.11178527 60.34736483 -245.72036504 89.32592233 -350.0625 153.25 C-350.70541992 153.69102051 -351.34833984 154.13204102 -352.01074219 154.58642578 C-368.2224009 165.75209756 -383.94427459 177.64327132 -399.0625 190.25 C-400.89574531 191.72927576 -402.72908111 193.20843938 -404.5625 194.6875 C-409.35516586 198.60504285 -413.94211638 202.71112987 -418.49609375 206.90234375 C-420.73808956 208.95324098 -423.01041029 210.95477533 -425.3125 212.9375 C-428.4499877 215.66048221 -431.37146395 218.53730875 -434.28125 221.5 C-436.14639674 223.33242487 -438.08177746 225.04353135 -440.0625 226.75 C-445.92101737 231.81835125 -451.12979539 237.28331617 -456.1796875 243.1484375 C-458.22972274 245.43665111 -460.37545092 247.59260582 -462.5625 249.75 C-466.6109417 253.75761707 -470.36768677 257.91765037 -474.0625 262.25 C-474.95510209 263.27919002 -475.84838751 264.30778762 -476.7421875 265.3359375 C-541.03092579 339.4882409 -589.25031642 433.84838691 -601.0625 541.25 C-601.20715698 542.65064697 -601.20715698 542.65064697 -601.35473633 544.07958984 C-602.18775516 552.7984708 -602.26264314 561.50024643 -602.25 570.25 C-602.24939575 571.02478699 -602.2487915 571.79957397 -602.24816895 572.59783936 C-602.2246171 583.74331849 -601.98223153 594.75114308 -600.40869141 605.80322266 C-600.16400595 607.53258629 -599.93613212 609.26436811 -599.72021484 610.99755859 C-594.0969071 656.02165986 -576.22435641 699.66062544 -548.0625 735.25 C-547.25554687 736.2709375 -546.44859375 737.291875 -545.6171875 738.34375 C-538.82605816 746.76758987 -531.62379562 754.7632077 -524 762.4375 C-523.29460083 763.14990845 -523.29460083 763.14990845 -522.57495117 763.87670898 C-473.26034184 812.97127715 -404.18384015 837.60756069 -336.5 846.9375 C-335.6639624 847.05697998 -334.8279248 847.17645996 -333.96655273 847.29956055 C-317.02610988 849.50017682 -299.7450678 849.48716923 -282.6875 849.5 C-281.73849823 849.50100708 -280.78949646 849.50201416 -279.81173706 849.50305176 C-262.71124029 849.49090436 -246.03732194 848.40671341 -229.0625 846.25 C-226.65628515 845.9684494 -224.25003504 845.68720004 -221.84375 845.40625 C-167.17907331 838.722795 -113.01377901 821.66547911 -63.234375 798.26611328 C-61.11175417 797.2730436 -58.97975391 796.30373544 -56.84375 795.33984375 C-45.84214623 790.33243071 -35.27866239 784.58950009 -24.71679688 778.71972656 C-22.26082357 777.35981493 -19.79676361 776.01643127 -17.328125 774.6796875 C21.95647325 753.316101 59.86008221 726.38195489 92.828125 696.1796875 C94.77539502 694.39829604 96.75274471 692.6624023 98.75 690.9375 C109.34266375 681.68167936 119.42343368 671.92677501 129.35107422 661.96679688 C131.3279601 659.98449756 133.31021039 658.00767367 135.29296875 656.03125 C141.38869709 649.93871783 147.36729798 643.83296602 152.9375 637.25 C154.55717817 635.47429779 156.18161718 633.70291693 157.8125 631.9375 C161.85029322 627.50503526 165.71057434 622.97257823 169.47265625 618.3046875 C171.27835175 616.0668842 173.09729312 613.84518101 174.93359375 611.6328125 C182.50872613 602.47098141 189.58289511 593.03268276 196.45458984 583.33398438 C197.79700369 581.44744427 199.15360726 579.57267684 200.51953125 577.703125 C214.69433531 558.24467549 227.17767452 537.66398101 238.68896484 516.53857422 C239.4976851 515.05618397 240.31027029 513.57589304 241.12744141 512.09814453 C267.7312518 463.90572395 287.91689949 408.51502156 294.62988281 353.70410156 C294.84991585 351.94872688 295.08833572 350.19561798 295.33886719 348.44433594 C297.6025825 332.57798072 298.21025563 316.93830019 298.1875 300.9375 C298.18672455 300.02097656 298.1859491 299.10445313 298.18515015 298.16015625 C298.14993779 283.81538008 297.83978625 269.51459293 295.625 255.3125 C295.49383789 254.46461914 295.36267578 253.61673828 295.22753906 252.74316406 C294.07015843 245.56416671 292.52396795 238.54852347 290.57373047 231.54248047 C290.11372744 229.88498683 289.66345066 228.22478349 289.21923828 226.56298828 C281.56900192 198.01267115 269.63515678 171.03997964 251.9375 147.25 C251.50501953 146.66202637 251.07253906 146.07405273 250.62695312 145.46826172 C226.56888109 112.98986447 194.00818905 88.73096636 157.24316406 72.29174805 C155.64849899 71.57124446 154.0622993 70.83181566 152.48339844 70.07739258 C144.63009247 66.3674278 136.54556781 63.53323068 128.3125 60.8125 C127.58896332 60.5725531 126.86542664 60.3326062 126.1199646 60.08538818 C107.98284909 54.09881397 89.75910427 49.77237747 70.9375 46.5 C69.81255127 46.30100098 68.68760254 46.10200195 67.52856445 45.89697266 C46.96797841 42.52258613 26.23394876 41.91878728 5.43701172 41.98925781 C1.70393493 41.99995291 -2.0286566 41.98929831 -5.76171875 41.9765625 C-30.74765245 41.95914906 -55.43004663 43.54954705 -80.125 47.375 Z " fill="#F9F9FA" transform="translate(640.0625,48.75)"/>
<path d="M0 0 C-4.98179626 14.23731622 -20.84652705 26.98837212 -31.42895508 37.39331055 C-33.05496184 39.05620884 -34.56349012 40.78487701 -36.0625 42.5625 C-40.08356896 47.24007002 -44.48845239 51.5146895 -48.86962891 55.85009766 C-52.57689617 59.53351758 -56.11659287 63.28800813 -59.49609375 67.27734375 C-61.59812061 69.68511997 -63.87959824 71.89127811 -66.15991211 74.12866211 C-67.92681494 75.92557205 -69.57726048 77.77604161 -71.21875 79.6875 C-75.67677641 84.81540975 -80.35789271 89.72123199 -85.0390625 94.64453125 C-91.55331477 101.52348104 -97.73232798 108.66529591 -103.875 115.875 C-107.42401333 120.03206689 -111.00674022 124.14575502 -114.6875 128.1875 C-118.48385019 132.37234564 -122.06860349 136.69711232 -125.62109375 141.08984375 C-127.72965709 143.66928494 -129.87360112 146.20982006 -132.03955078 148.74072266 C-137.04844722 154.59639027 -141.82998476 160.58060632 -146.4921875 166.71484375 C-148.5656434 169.44201197 -150.67482182 172.13844561 -152.80029297 174.82519531 C-163.75277082 188.67222776 -174.549256 202.60239371 -184.41308594 217.25219727 C-187.70360028 222.13517704 -191.10106959 226.90822918 -194.625 231.625 C-199.91208509 238.73996563 -204.72901185 246.11281449 -209.47412109 253.59716797 C-211.13775833 256.21693079 -212.81245475 258.82942524 -214.48828125 261.44140625 C-221.16396772 271.86238489 -227.73834884 282.32493429 -234 293 C-234.40750488 293.69029297 -234.81500977 294.38058594 -235.23486328 295.09179688 C-255.15362536 328.87066639 -274.94760374 364.35298277 -288.04638672 401.42260742 C-289.0439813 404.11887112 -290.1583156 406.74237113 -291.3125 409.375 C-293.99232567 415.7180736 -296.13370118 422.20487316 -298.27270508 428.74462891 C-299.98287531 433.96950971 -301.75840507 439.15977952 -303.62890625 444.3293457 C-315.01783658 475.97767649 -322.94376806 509.77181077 -327.66210938 543.07519531 C-328 545 -328 545 -329 548 C-334.54690836 551.30681076 -340.26624049 553.11852895 -346.4609375 554.875 C-349.28861497 555.77386436 -351.92795327 556.77639557 -354.66015625 557.9140625 C-360.34293635 560.22175795 -366.13450392 561.82596005 -372.0625 563.375 C-373.19373291 563.67317627 -374.32496582 563.97135254 -375.49047852 564.27856445 C-378.99133545 565.19490592 -382.49533813 566.09833438 -386 567 C-387.05799805 567.27666504 -388.11599609 567.55333008 -389.20605469 567.83837891 C-408.59032444 572.88146579 -428.11097185 576.3529093 -448.10302734 577.76977539 C-451.50899907 578.04045054 -454.81690763 578.5082613 -458.1875 579.0625 C-463.84675104 579.91804187 -469.28489717 580.23703191 -475 580 C-474.49398079 575.04101171 -473.65624614 570.2489285 -472.625 565.37109375 C-467.00250319 537.72314648 -465.50507131 509.7594415 -465.50100327 481.6140976 C-465.50001764 479.53716098 -465.49397363 477.4602867 -465.48721313 475.38336182 C-465.43483117 451.5034744 -466.95076979 427.80906415 -471.75 404.375 C-472.00386475 403.10213135 -472.25772949 401.8292627 -472.51928711 400.51782227 C-475.91030354 383.80865204 -479.93401476 366.90245018 -486.20996094 351.01171875 C-487.17386879 348.5572686 -488.1038872 346.09053924 -489.0390625 343.625 C-500.25658766 314.45707795 -514.23783636 286.0672263 -531.62548828 260.06103516 C-533.31259809 257.53126944 -534.98164524 254.98985172 -536.65234375 252.44921875 C-551.47113773 229.98485381 -567.27589416 208.30928738 -584.13208008 187.32568359 C-586.66801068 184.16828261 -589.18175057 180.99387372 -591.6875 177.8125 C-592.13416016 177.24853516 -592.58082031 176.68457031 -593.04101562 176.10351562 C-594.37322415 174.4116688 -595.68839547 172.70785381 -597 171 C-597.48807129 170.38044434 -597.97614258 169.76088867 -598.47900391 169.12255859 C-599.73345012 167.47347459 -600.87629503 165.74080455 -602 164 C-601.67 163.01 -601.34 162.02 -601 161 C-594.44459349 160.75238027 -589.11771304 161.4151155 -582.875 163.375 C-582.020271 163.63901611 -581.16554199 163.90303223 -580.28491211 164.17504883 C-542.63748332 176.26398473 -508.01213474 198.19852151 -477.85839844 223.45019531 C-476.14928611 224.87550338 -474.42517933 226.27971682 -472.6953125 227.6796875 C-464.76120276 234.19042988 -457.45877624 241.33111287 -450.1875 248.5625 C-449.69917694 249.04555603 -449.21085388 249.52861206 -448.70773315 250.02630615 C-442.00814142 256.66992579 -435.86477983 263.60736536 -430 271 C-428.98720338 272.23149821 -427.97195049 273.46098484 -426.953125 274.6875 C-419.0095598 284.37540493 -411.91454422 294.55894272 -405 305 C-404.38125 305.93126709 -404.38125 305.93126709 -403.75 306.88134766 C-398 315.57373047 -398 315.57373047 -398 318 C-394.32507582 314.51270399 -391.35784363 310.87521348 -388.5 306.6875 C-383.2009257 299.09808754 -377.40633227 291.96485162 -371.51025391 284.83496094 C-370.13375219 283.16250912 -368.77205864 281.47967493 -367.41796875 279.7890625 C-363.73545653 275.20944765 -360.01914674 270.85452797 -355.78198242 266.78100586 C-354.00492631 265.00492361 -352.36169415 263.16537415 -350.72265625 261.26171875 C-342.06062534 251.29787313 -332.87790023 241.78922402 -323.5625 232.4375 C-322.92513916 231.79554688 -322.28777832 231.15359375 -321.63110352 230.4921875 C-317.81626783 226.68975536 -313.87216818 223.09902807 -309.79663086 219.57836914 C-307.59629106 217.6453352 -305.53898177 215.60171967 -303.5 213.5 C-300.16879193 210.12899935 -296.74888372 206.9548597 -293.15234375 203.87109375 C-290.61947838 201.66920171 -288.15667478 199.39804174 -285.6875 197.125 C-281.1482504 192.98074035 -276.46541704 189.07421602 -271.68359375 185.21484375 C-269.05291443 183.04367173 -266.52057576 180.79758643 -264 178.5 C-259.75348314 174.63466655 -255.3698689 170.98601754 -250.90625 167.375 C-248.34651891 165.28317675 -245.82308724 163.15833632 -243.31005859 161.01123047 C-236.5960738 155.27514776 -229.72025733 149.78042264 -222.74853516 144.36181641 C-220.47623419 142.59207404 -218.21371108 140.81009156 -215.95141602 139.02758789 C-201.76022199 127.85016444 -187.51062551 116.76072647 -173 106 C-172.25637207 105.44844238 -171.51274414 104.89688477 -170.74658203 104.32861328 C-156.0994376 93.47717608 -141.4350402 82.63919503 -126.37451172 72.36547852 C-122.46330551 69.69727666 -118.57087056 67.00495519 -114.6953125 64.28515625 C-91.02038486 47.68034798 -66.80025203 31.72121327 -41.84912109 17.08544922 C-40.58944184 16.34600719 -39.33203635 15.60268118 -38.07666016 14.85595703 C-30.56435328 10.40013711 -22.98572357 6.34800297 -14.9375 2.9375 C-14.24736816 2.63827637 -13.55723633 2.33905273 -12.84619141 2.03076172 C-8.35291655 0.20348932 -4.84648482 -0.29620909 0 0 Z " fill="#FDFCFD" transform="translate(862,274)"/>
<path d="M0 0 C3.45325161 0.00533171 6.90637163 0.00004497 10.35961914 -0.00634766 C27.55355136 -0.01314447 44.50430742 0.35170238 61.54125977 2.88037109 C62.72574707 3.0530249 63.91023437 3.22567871 65.13061523 3.40356445 C81.26141841 5.84733024 98.85059502 8.58933741 113.66625977 15.75537109 C116.70184015 17.21563571 119.48833995 18.43906229 122.79125977 19.13037109 C122.79125977 19.79037109 122.79125977 20.45037109 122.79125977 21.13037109 C121.9959082 21.05818359 121.20055664 20.98599609 120.38110352 20.91162109 C67.43927877 16.2550193 67.43927877 16.2550193 16.79125977 27.13037109 C15.05840942 27.38986972 13.32474325 27.6446602 11.58813477 27.87768555 C-10.29722065 30.88087367 -32.25554351 36.39509367 -53.16137695 43.45996094 C-56.68998293 44.61540477 -60.26376907 45.61177071 -63.83374023 46.63037109 C-72.42087818 49.11896551 -80.82343883 52.03431303 -89.20874023 55.13037109 C-90.10334961 55.46004883 -90.99795898 55.78972656 -91.91967773 56.12939453 C-94.76907822 57.1842582 -97.61457636 58.24897473 -100.45874023 59.31787109 C-101.35238281 59.65085205 -102.24602539 59.98383301 -103.16674805 60.3269043 C-107.46119283 61.95802264 -111.29928079 63.69384179 -115.20874023 66.13037109 C-116.94466609 66.81313174 -118.6968722 67.45515442 -120.45874023 68.06787109 C-130.6508967 71.90002958 -140.35316516 76.83438134 -150.12280273 81.62109375 C-152.88588543 82.97246853 -155.65540653 84.3093159 -158.42749023 85.64208984 C-171.76222838 92.11104909 -184.51373494 99.49231484 -197.20874023 107.13037109 C-198.13396484 107.68660156 -199.05918945 108.24283203 -200.01245117 108.81591797 C-224.70940474 123.73163643 -248.24985488 140.29207097 -270.47192383 158.69775391 C-272.97108429 160.75919242 -275.49919395 162.78453816 -278.02124023 164.81787109 C-282.70871827 168.65372024 -287.190434 172.685254 -291.64624023 176.78662109 C-293.86558299 178.81650776 -296.11546058 180.79532608 -298.39624023 182.75537109 C-301.8319922 185.73628827 -305.01478385 188.91772263 -308.20483398 192.15771484 C-310.16552258 194.0878274 -312.18693738 195.89772008 -314.27124023 197.69287109 C-321.08096924 203.21209231 -321.08096924 203.21209231 -326.20874023 210.13037109 C-326.86874023 210.13037109 -327.52874023 210.13037109 -328.20874023 210.13037109 C-328.44463867 210.69626953 -328.68053711 211.26216797 -328.92358398 211.84521484 C-330.5028834 214.65339162 -332.43560029 216.47419591 -334.77124023 218.69287109 C-339.20644466 223.03248922 -343.13289996 227.57885919 -347.00170898 232.42333984 C-349.11626268 235.01694288 -351.31660495 237.48244541 -353.58374023 239.94287109 C-358.6574792 245.51957201 -363.26172963 251.42273916 -367.86206055 257.38964844 C-369.11141889 259.0045732 -370.37436897 260.60895802 -371.63842773 262.21240234 C-389.32378113 284.7974684 -404.2716155 309.09713145 -418.20874023 334.13037109 C-418.61044434 334.84580078 -419.01214844 335.56123047 -419.42602539 336.29833984 C-424.45372519 345.29550182 -428.8426915 354.5218396 -433.02124023 363.94287109 C-433.47764893 364.96864258 -433.93405762 365.99441406 -434.40429688 367.05126953 C-437.03384423 373.08133608 -439.29698643 379.13921101 -441.31494141 385.39990234 C-442.06419419 387.68879696 -442.86934717 389.92888801 -443.73999023 392.17333984 C-445.65286865 397.18172082 -447.1636327 402.31162971 -448.70874023 407.44287109 C-449.00393555 408.41160156 -449.29913086 409.38033203 -449.60327148 410.37841797 C-452.50739724 419.96715037 -455.35956998 429.44386718 -456.77124023 439.38037109 C-456.89345947 440.23695313 -457.01567871 441.09353516 -457.14160156 441.97607422 C-457.5154807 444.69216011 -457.86747199 447.41000356 -458.20874023 450.13037109 C-458.31605469 450.98050781 -458.42336914 451.83064453 -458.53393555 452.70654297 C-465.63637522 511.9160877 -455.79552529 574.21900284 -418.20874023 622.13037109 C-417.40436523 623.15775391 -416.59999023 624.18513672 -415.77124023 625.24365234 C-403.17000858 640.86947253 -388.58809442 654.56295833 -372.20874023 666.13037109 C-371.16331055 666.87544922 -370.11788086 667.62052734 -369.04077148 668.38818359 C-349.12611259 682.09462899 -326.99922817 692.26439697 -304.20874023 700.13037109 C-304.20874023 700.46037109 -304.20874023 700.79037109 -304.20874023 701.13037109 C-311.58084898 701.45499235 -318.16730692 700.56245011 -325.33374023 698.88037109 C-326.85185303 698.53377441 -326.85185303 698.53377441 -328.40063477 698.18017578 C-330.4231448 697.71559286 -332.44451174 697.24600043 -334.46459961 696.77099609 C-336.7661099 696.23370401 -339.07030364 695.72165579 -341.38061523 695.22412109 C-349.94748148 693.27217689 -358.12712929 690.52087169 -366.39624023 687.56787109 C-368.02891846 686.98537598 -368.02891846 686.98537598 -369.69458008 686.39111328 C-374.5265558 684.6259182 -378.80249536 682.79232238 -383.20874023 680.13037109 C-384.76968161 679.46733647 -386.34595872 678.8392836 -387.93530273 678.24755859 C-393.02884722 676.25721607 -397.79811658 673.8947416 -402.58374023 671.25537109 C-403.43444092 670.78631348 -404.2851416 670.31725586 -405.16162109 669.83398438 C-433.49213997 653.85533254 -459.38930249 631.72791374 -478.20874023 605.13037109 C-478.65443359 604.5087207 -479.10012695 603.88707031 -479.55932617 603.24658203 C-517.80921475 549.50772005 -530.41744867 483.60273757 -520.10327148 418.85693359 C-515.75287869 393.19817988 -509.21125293 368.54788815 -500.20874023 344.13037109 C-499.96269043 343.46150879 -499.71664062 342.79264648 -499.46313477 342.10351562 C-495.55633283 331.57552715 -490.99156458 321.44073156 -485.82202148 311.48193359 C-484.66338552 309.07488843 -483.71681565 306.84282403 -482.83374023 304.34521484 C-481.00103719 299.3269995 -478.4742324 294.73682177 -475.89624023 290.06787109 C-475.37425049 289.11831543 -474.85226074 288.16875977 -474.31445312 287.19042969 C-453.45390742 249.59891889 -428.14862201 214.54010435 -398.87670898 183.04443359 C-396.87641768 180.85963519 -394.93477896 178.65347662 -393.00561523 176.40771484 C-388.64708711 171.40897433 -383.96958476 166.74506778 -379.27124023 162.06787109 C-377.98830078 160.77913086 -377.98830078 160.77913086 -376.67944336 159.46435547 C-371.6841958 154.47672842 -366.57584193 149.7131423 -361.20874023 145.13037109 C-360.04077209 144.10841912 -358.87407747 143.0850096 -357.70874023 142.06005859 C-321.02897462 109.98671003 -281.19779394 83.09285946 -237.95874023 60.63037109 C-236.82807129 60.04263916 -235.69740234 59.45490723 -234.5324707 58.84936523 C-228.50129539 55.74300888 -222.44172651 52.80741851 -216.20874023 50.13037109 C-214.7080169 49.46533431 -213.20794313 48.79882836 -211.70874023 48.13037109 C-210.96108398 47.79908203 -210.21342773 47.46779297 -209.44311523 47.12646484 C-207.99214851 46.47961779 -206.54403061 45.82632799 -205.09936523 45.16552734 C-198.57695188 42.20187602 -191.91516842 39.64383951 -185.20874023 37.13037109 C-184.08024658 36.70570557 -184.08024658 36.70570557 -182.92895508 36.27246094 C-165.57035015 29.75294466 -165.57035015 29.75294466 -158.50952148 27.83349609 C-156.5709812 27.24107292 -154.66858928 26.53220313 -152.77905273 25.79833984 C-146.8893375 23.56485163 -140.82753742 21.90875435 -134.77124023 20.19287109 C-133.51424316 19.83660645 -132.25724609 19.4803418 -130.9621582 19.11328125 C-122.57671997 16.7561939 -114.20162104 14.46933467 -105.67993164 12.65625 C-103.85003184 12.26684038 -102.02182558 11.86945368 -100.19458008 11.46777344 C-84.58370088 8.0560942 -68.98772487 5.3840844 -53.14624023 3.31787109 C-52.34449371 3.21282257 -51.54274719 3.10777405 -50.71670532 2.99954224 C-45.55241587 2.32923865 -40.38429398 1.70710613 -35.20874023 1.13037109 C-34.18433838 1.0140332 -33.15993652 0.89769531 -32.10449219 0.77783203 C-21.44159175 -0.23436112 -10.69975211 -0.01962565 0 0 Z " fill="#FBFBFC" transform="translate(626.208740234375,136.86962890625)"/>
<path d="M0 0 C2.17968643 1.64959262 4.24029981 3.37627796 6.296875 5.17578125 C7.286875 5.95308594 7.286875 5.95308594 8.296875 6.74609375 C23.7197911 19.21696731 33.56114438 38.7328517 36.296875 58.17578125 C36.54273122 62.53448529 36.53227897 66.87397771 36.484375 71.23828125 C36.4834082 72.91760742 36.4834082 72.91760742 36.48242188 74.63085938 C36.43284327 84.0232508 36.01211886 92.434031 32.296875 101.17578125 C31.89597656 102.21734375 31.49507812 103.25890625 31.08203125 104.33203125 C23.68344282 122.85924437 10.9249592 138.5507941 -6.703125 148.17578125 C-7.46496094 148.62179687 -8.22679687 149.0678125 -9.01171875 149.52734375 C-28.45601935 160.21679062 -52.73169552 162.38376202 -73.9375 156.37109375 C-96.35547824 149.25501352 -114.99177493 135.01878969 -126.11206055 114.1472168 C-129.85616547 106.74343371 -132.65742251 99.22938893 -134.703125 91.17578125 C-134.92742187 90.3971875 -135.15171875 89.61859375 -135.3828125 88.81640625 C-140.65126815 67.88692492 -135.21355474 44.9070142 -124.5703125 26.62890625 C-111.89057708 6.24603303 -92.37996483 -7.53183281 -69.1887207 -13.43212891 C-45.4154952 -18.70131714 -20.112543 -13.57306009 0 0 Z " fill="#FDFCFD" transform="translate(521.703125,314.82421875)"/>
<path d="M0 0 C0.66 0.33 1.32 0.66 2 1 C0.18070872 5.87063425 -4.00081562 8.74697856 -7.83203125 12.02148438 C-9.27379576 13.2904466 -10.64292341 14.64084837 -12 16 C-12 16.99 -12 17.98 -12 19 C-13.390625 20.5 -13.390625 20.5 -15.25 22 C-16.20326172 22.77730469 -16.20326172 22.77730469 -17.17578125 23.5703125 C-19.09705093 25.07606133 -21.01883989 26.57356472 -23 28 C-23.66 27.67 -24.32 27.34 -25 27 C-24.57589844 26.5875 -24.15179687 26.175 -23.71484375 25.75 C-19.98371965 22.07627781 -16.46070459 18.29723049 -13.04296875 14.33203125 C-8.78644832 9.47324981 -4.37754205 4.74959354 0 0 Z " fill="#112879" transform="translate(797,346)"/>
<path d="M0 0 C0.99 0.33 1.98 0.66 3 1 C-3.6 7.6 -10.2 14.2 -17 21 C-17.33 20.01 -17.66 19.02 -18 18 C-12.37361021 11.50903494 -6.55902307 5.55113536 0 0 Z " fill="#1B317C" transform="translate(205,271)"/>
<path d="M0 0 C0.33 0 0.66 0 1 0 C1.144375 1.134375 1.28875 2.26875 1.4375 3.4375 C1.61171478 6.80777201 1.61171478 6.80777201 3 8 C3.07179964 9.51928038 3.08392007 11.04167482 3.0625 12.5625 C3.05347656 13.38878906 3.04445313 14.21507812 3.03515625 15.06640625 C3.01775391 16.02353516 3.01775391 16.02353516 3 17 C2.67 17 2.34 17 2 17 C1.67 27.89 1.34 38.78 1 50 C0.67 50 0.34 50 0 50 C-0.16782208 43.04011067 -0.32778626 36.08007319 -0.48217773 29.11987305 C-0.53568644 26.75003936 -0.59102231 24.38024621 -0.64819336 22.01049805 C-0.72985758 18.61255643 -0.80503992 15.21452518 -0.87890625 11.81640625 C-0.90594131 10.74975235 -0.93297638 9.68309845 -0.96083069 8.5841217 C-0.98092697 7.60318039 -1.00102325 6.62223907 -1.02172852 5.61157227 C-1.04171402 4.74331314 -1.06169952 3.87505402 -1.08229065 2.98048401 C-1 1 -1 1 0 0 Z " fill="#103786" transform="translate(101,572)"/>
<path d="M0 0 C0.99 0 1.98 0 3 0 C1.43405073 3.84369366 -1.09461006 6.09461006 -4 9 C-4.639375 9.99 -5.27875 10.98 -5.9375 12 C-8.3058523 15.44487607 -10.70877892 17.45678371 -14 20 C-14.33 19.01 -14.66 18.02 -15 17 C-13.87851562 15.78763672 -13.87851562 15.78763672 -12.734375 14.55078125 C-11.73949763 13.47143316 -10.74471077 12.39200163 -9.75 11.3125 C-9.25886719 10.78205078 -8.76773438 10.25160156 -8.26171875 9.70507812 C-5.98527318 7.2313406 -3.8499311 4.7999981 -1.828125 2.10546875 C-1.22484375 1.41066406 -0.6215625 0.71585937 0 0 Z " fill="#112B7E" transform="translate(765,381)"/>
<path d="M0 0 C0.66 0.33 1.32 0.66 2 1 C-3.27557805 7.31073875 -8.51302876 13.30161662 -16 17 C-16.99 17 -17.98 17 -19 17 C-13.08668201 10.78169713 -6.7161195 5.33338902 0 0 Z " fill="#10297B" transform="translate(237,242)"/>
<path d="M0 0 C5 1.66666667 10 3.33333333 15 5 C15 5.66 15 6.32 15 7 C9.72 6.67 4.44 6.34 -1 6 C-0.67 4.02 -0.34 2.04 0 0 Z " fill="#DCDFED" transform="translate(734,151)"/>
<path d="M0 0 C0 0.33 0 0.66 0 1 C-3.3 1.33 -6.6 1.66 -10 2 C-10 2.33 -10 2.66 -10 3 C-18.415 3.495 -18.415 3.495 -27 4 C-27 3.01 -27 2.02 -27 1 C-17.98175113 -0.06996173 -9.06335876 -0.10234659 0 0 Z " fill="#0A277D" transform="translate(614,135)"/>
<path d="M0 0 C5 1.66666667 10 3.33333333 15 5 C15 5.33 15 5.66 15 6 C7.75002578 6.28307925 1.09038772 5.50974035 -6 4 C-6 3.67 -6 3.34 -6 3 C-4.02 3 -2.04 3 0 3 C0 2.01 0 1.02 0 0 Z " fill="#CECFE5" transform="translate(307,832)"/>
<path d="M0 0 C0.33 0 0.66 0 1 0 C1.50787046 2.99885414 2.00646625 5.99878126 2.5 9 C2.64308594 9.83917969 2.78617187 10.67835938 2.93359375 11.54296875 C3.78480242 16.77182201 4.14714583 21.70275027 4 27 C3.67 27 3.34 27 3 27 C2.855625 25.865625 2.71125 24.73125 2.5625 23.5625 C2.38828522 20.19222799 2.38828522 20.19222799 1 19 C0.34 19.66 -0.32 20.32 -1 21 C-0.91621094 20.08476563 -0.83242188 19.16953125 -0.74609375 18.2265625 C-0.64425781 17.03804687 -0.54242188 15.84953125 -0.4375 14.625 C-0.33308594 13.44164062 -0.22867187 12.25828125 -0.12109375 11.0390625 C0.24153596 8.08101369 0.24153596 8.08101369 -1 6 C-0.71887936 3.99199544 -0.38932033 1.98985949 0 0 Z " fill="#44589B" transform="translate(391,682)"/>
<path d="M0 0 C0.33 0 0.66 0 1 0 C1.05449838 1.72880982 1.09301688 3.45812712 1.125 5.1875 C1.14820313 6.15042969 1.17140625 7.11335937 1.1953125 8.10546875 C0.9913544 11.12812778 0.26874632 13.26769985 -1 16 C-2.5625 14.875 -2.5625 14.875 -4 13 C-3.75921963 9.14751405 -3.15973378 7.23960066 -1 4 C-0.36707617 1.88719655 -0.36707617 1.88719655 0 0 Z " fill="#0F2674" transform="translate(389,831)"/>
<path d="M0 0 C3.33790735 1.11263578 3.97187624 1.90490039 6.125 4.5625 C10.02498292 9.18068106 14.40786733 13.08471228 19 17 C18.34 17.66 17.68 18.32 17 19 C16.67 18.01 16.34 17.02 16 16 C15.44828125 15.731875 14.8965625 15.46375 14.328125 15.1875 C10.8676656 13.42243346 8.45898211 10.74786702 5.75 8 C5.19570312 7.4534375 4.64140625 6.906875 4.0703125 6.34375 C0 2.2533867 0 2.2533867 0 0 Z " fill="#14267F" transform="translate(162,760)"/>
<path d="M0 0 C2 3 2 3 1.79296875 5.33984375 C1.59316406 6.19707031 1.39335937 7.05429687 1.1875 7.9375 C0.99542969 8.79214844 0.80335938 9.64679687 0.60546875 10.52734375 C0.07674512 12.68658282 -0.45495525 14.84482304 -1 17 C-1.66 17 -2.32 17 -3 17 C-3.33 17.66 -3.66 18.32 -4 19 C-3.37968409 12.42465139 -1.85102717 6.33307408 0 0 Z " fill="#0D257C" transform="translate(178,539)"/>
<path d="M0 0 C0.33 0 0.66 0 1 0 C1.33 6.6 1.66 13.2 2 20 C2.33 20 2.66 20 3 20 C3 22.31 3 24.62 3 27 C2.01 27 1.02 27 0 27 C-0.33 27.99 -0.66 28.98 -1 30 C-0.67 20.1 -0.34 10.2 0 0 Z " fill="#6977AE" transform="translate(558,374)"/>
<path d="M0 0 C0.99 0.33 1.98 0.66 3 1 C-1.23353847 5.93912821 -6.12975632 8.32134512 -12 11 C-10.50589642 7.19299032 -8.3813123 5.50238376 -5.0625 3.1875 C-4.18722656 2.56230469 -3.31195313 1.93710938 -2.41015625 1.29296875 C-1.61480469 0.86628906 -0.81945312 0.43960938 0 0 Z " fill="#122A7F" transform="translate(284,206)"/>
<path d="M0 0 C0.33 0.66 0.66 1.32 1 2 C0.34 2 -0.32 2 -1 2 C-1.09667969 2.60199219 -1.19335938 3.20398438 -1.29296875 3.82421875 C-2.14989253 6.46127148 -3.07346519 7.22551815 -5.3125 8.8125 C-5.90675781 9.25207031 -6.50101563 9.69164062 -7.11328125 10.14453125 C-9 11 -9 11 -13 10 C-8.71 6.7 -4.42 3.4 0 0 Z " fill="#B4B3B5" transform="translate(230,197)"/>
<path d="M0 0 C0.66 0.33 1.32 0.66 2 1 C-1.07513046 4.37368681 -4.28518856 6.50901962 -8.25 8.75 C-9.86648438 9.67039063 -9.86648438 9.67039063 -11.515625 10.609375 C-12.74539063 11.29773438 -12.74539063 11.29773438 -14 12 C-14 11.01 -14 10.02 -14 9 C-11.73497385 7.26131152 -9.54025932 5.74831156 -7.125 4.25 C-6.47402344 3.82589844 -5.82304687 3.40179688 -5.15234375 2.96484375 C-3.47807795 1.90505076 -1.74209494 0.94415697 0 0 Z " fill="#C0C1C1" transform="translate(292,153)"/>
<path d="M0 0 C0.66 0.33 1.32 0.66 2 1 C0.5682479 6.01113235 -1.98445693 7.94469549 -6 11 C-6.66 10.34 -7.32 9.68 -8 9 C-5.36 6.03 -2.72 3.06 0 0 Z " fill="#132B7D" transform="translate(167,310)"/>
<path d="M0 0 C0.66 0.33 1.32 0.66 2 1 C1.67 1.66 1.34 2.32 1 3 C0.34 3 -0.32 3 -1 3 C-1 3.66 -1 4.32 -1 5 C-4.82942948 7.90108294 -8.27536912 8.53680089 -13 9 C-9.00302635 5.62755348 -4.72909821 2.28625278 0 0 Z " fill="#203382" transform="translate(331,176)"/>
<path d="M0 0 C2 3 2 3 1.86328125 4.9375 C0.08869457 11.58276077 0.08869457 11.58276077 -3 14 C-3.33 14.66 -3.66 15.32 -4 16 C-4.66 16 -5.32 16 -6 16 C-4.25192871 10.53262809 -2.34205919 5.24175152 0 0 Z " fill="#263A89" transform="translate(586,644)"/>
<path d="M0 0 C0.66 0 1.32 0 2 0 C1.7834375 1.7634375 1.7834375 1.7634375 1.5625 3.5625 C0.80046214 10.35552324 0.42237034 17.17916837 0 24 C-0.33 24 -0.66 24 -1 24 C-1.02909763 20.75001888 -1.04683161 17.50007143 -1.0625 14.25 C-1.07087891 13.32960938 -1.07925781 12.40921875 -1.08789062 11.4609375 C-1.09111328 10.57148438 -1.09433594 9.68203125 -1.09765625 8.765625 C-1.10289307 7.94868164 -1.10812988 7.13173828 -1.11352539 6.29003906 C-1.00299021 4.06031865 -0.62055567 2.13866245 0 0 Z " fill="#1F2D80" transform="translate(385,368)"/>
<path d="M0 0 C0.66 0 1.32 0 2 0 C3.06987652 3.20962956 3.20081156 5.68899262 3.25 9.0625 C3.27578125 10.12597656 3.3015625 11.18945312 3.328125 12.28515625 C3.16570313 13.62900391 3.16570313 13.62900391 3 15 C2.01 15.66 1.02 16.32 0 17 C0 11.39 0 5.78 0 0 Z " fill="#223F8A" transform="translate(935,357)"/>
<path d="M0 0 C0.66 0.33 1.32 0.66 2 1 C0.78184562 5.68520915 -0.69559987 9.70543612 -3 14 C-3.99 14 -4.98 14 -6 14 C-4.50829734 9.0276578 -2.39542583 4.58154261 0 0 Z " fill="#EAECF6" transform="translate(397,342)"/>
<path d="M0 0 C0.33 0 0.66 0 1 0 C0.9278125 0.63808594 0.855625 1.27617188 0.78125 1.93359375 C0.6884375 2.75988281 0.595625 3.58617187 0.5 4.4375 C0.4071875 5.26121094 0.314375 6.08492187 0.21875 6.93359375 C0.05543721 8.4639499 0.05543721 8.4639499 0 10 C-0.3125 11.9375 -0.3125 11.9375 -1 14 C-1.99 14.66 -2.98 15.32 -4 16 C-3.85769192 14.58297487 -3.71099254 13.1663904 -3.5625 11.75 C-3.48128906 10.96109375 -3.40007813 10.1721875 -3.31640625 9.359375 C-3.02365007 7.17635361 -2.57935581 5.1226818 -2 3 C-1.34 3 -0.68 3 0 3 C0 2.01 0 1.02 0 0 Z " fill="#2D418C" transform="translate(545,765)"/>
<path d="M0 0 C0.66 0.33 1.32 0.66 2 1 C1.64455443 7.63498399 -0.13095043 11.63187218 -4 17 C-5 15 -5 15 -4.00390625 11.5234375 C-3.53099953 10.13802064 -3.05018356 8.75528453 -2.5625 7.375 C-2.31951172 6.66859375 -2.07652344 5.9621875 -1.82617188 5.234375 C-1.22412795 3.48726713 -0.61291983 1.74332214 0 0 Z " fill="#D1D5E8" transform="translate(124,486)"/>
<path d="M0 0 C0.66 0 1.32 0 2 0 C2.33 0.99 2.66 1.98 3 3 C2.21625 3.556875 1.4325 4.11375 0.625 4.6875 C-2.08704858 7.07668565 -2.96133543 8.60073413 -4 12 C-4.66 11.01 -5.32 10.02 -6 9 C-5.05016642 7.49460339 -4.08988109 5.99579653 -3.125 4.5 C-2.59132812 3.6646875 -2.05765625 2.829375 -1.5078125 1.96875 C-0.76144531 0.99421875 -0.76144531 0.99421875 0 0 Z " fill="#142C7F" transform="translate(134,351)"/>
<path d="M0 0 C0.33 0.99 0.66 1.98 1 3 C-0.65 3.33 -2.3 3.66 -4 4 C-4 4.66 -4 5.32 -4 6 C-8.1077065 7.58706842 -9.59232396 8.10191901 -14 7 C-9.38 4.69 -4.76 2.38 0 0 Z " fill="#1F3284" transform="translate(467,222)"/>
<path d="M0 0 C-2.64 0.33 -5.28 0.66 -8 1 C-8 1.66 -8 2.32 -8 3 C-12.62 3 -17.24 3 -22 3 C-22 2.67 -22 2.34 -22 2 C-20.0509375 1.814375 -20.0509375 1.814375 -18.0625 1.625 C-13.9447918 1.18335306 -10.04199005 0.3681795 -6.04296875 -0.6953125 C-3.74429857 -1.0381352 -2.19724676 -0.70114391 0 0 Z " fill="#4B589D" transform="translate(656,162)"/>
<path d="M0 0 C4.56454251 0.54339792 7.9728176 1.79463821 12 4 C10.296875 5.1171875 10.296875 5.1171875 8 6 C5.640625 5.3203125 5.640625 5.3203125 3.25 4.125 C2.45078125 3.73570312 1.6515625 3.34640625 0.828125 2.9453125 C-0.07679688 2.47738281 -0.07679688 2.47738281 -1 2 C-0.67 1.34 -0.34 0.68 0 0 Z " fill="#1D388B" transform="translate(735,149)"/>
<path d="M0 0 C0.66 0.33 1.32 0.66 2 1 C2 3.97 2 6.94 2 10 C0.68 9.67 -0.64 9.34 -2 9 C-1.125 1.125 -1.125 1.125 0 0 Z " fill="#233A88" transform="translate(540,785)"/>
<path d="M0 0 C6.00333124 -0.6319296 10.63404795 1.62455877 16 4 C16 4.66 16 5.32 16 6 C12.21760329 5.34309381 8.78158474 4.279869 5.1875 2.9375 C4.21167969 2.57527344 3.23585938 2.21304687 2.23046875 1.83984375 C1.49441406 1.56269531 0.75835937 1.28554688 0 1 C0 0.67 0 0.34 0 0 Z " fill="#263688" transform="translate(284,439)"/>
<path d="M0 0 C0.33 0 0.66 0 1 0 C2.26305335 5.07476794 3.27036084 9.72796354 3 15 C2.01 15.495 2.01 15.495 1 16 C0.93941406 15.36191406 0.87882812 14.72382812 0.81640625 14.06640625 C0.73261719 13.24011719 0.64882812 12.41382813 0.5625 11.5625 C0.48128906 10.73878906 0.40007812 9.91507813 0.31640625 9.06640625 C0.21069185 7.01337975 0.21069185 7.01337975 -1 6 C-1.125 3.5 -1.125 3.5 -1 1 C-0.67 0.67 -0.34 0.34 0 0 Z " fill="#092075" transform="translate(105,639)"/>
<path d="M0 0 C0.66 0.33 1.32 0.66 2 1 C-1.96 4.96 -5.92 8.92 -10 13 C-10.33 12.01 -10.66 11.02 -11 10 C-9.68 9.34 -8.36 8.68 -7 8 C-7 7.34 -7 6.68 -7 6 C-5.46875 4.4921875 -5.46875 4.4921875 -3.5 2.875 C-2.8503125 2.33617187 -2.200625 1.79734375 -1.53125 1.2421875 C-0.77328125 0.62730469 -0.77328125 0.62730469 0 0 Z " fill="#04207D" transform="translate(241,303)"/>
<path d="M0 0 C-1 3 -1 3 -2.92578125 4.203125 C-3.71339844 4.54859375 -4.50101562 4.8940625 -5.3125 5.25 C-6.09238281 5.60578125 -6.87226563 5.9615625 -7.67578125 6.328125 C-10.24607227 7.0711335 -11.51383429 6.88750996 -14 6 C-12.04414675 4.99515796 -10.08523763 3.99626195 -8.125 3 C-6.48917969 2.1646875 -6.48917969 2.1646875 -4.8203125 1.3125 C-2 0 -2 0 0 0 Z " fill="#30418E" transform="translate(381,151)"/>
<path d="M0 0 C0.53625 0.391875 1.0725 0.78375 1.625 1.1875 C-1.015 1.8475 -3.655 2.5075 -6.375 3.1875 C-6.375 3.8475 -6.375 4.5075 -6.375 5.1875 C-8.355 5.1875 -10.335 5.1875 -12.375 5.1875 C-4.18133803 -1.43045775 -4.18133803 -1.43045775 0 0 Z " fill="#183084" transform="translate(485.375,214.8125)"/>
<path d="M0 0 C0.66 0.33 1.32 0.66 2 1 C0.59155282 4.21524305 -1.10344786 6.32183868 -3.625 8.75 C-4.57246094 9.67039062 -4.57246094 9.67039062 -5.5390625 10.609375 C-6.02117188 11.06828125 -6.50328125 11.5271875 -7 12 C-7 8.03851186 -5.53105028 6.96494461 -3 4 C-1.99426222 2.67098936 -0.99204592 1.33926199 0 0 Z " fill="#062077" transform="translate(541,500)"/>
<path d="M0 0 C1.10844919 3.32534757 0.84454356 5.62182575 0 9 C-0.66 9 -1.32 9 -2 9 C-2.33 10.32 -2.66 11.64 -3 13 C-3.66 13 -4.32 13 -5 13 C-3.58192622 8.52761347 -1.88695626 4.28853694 0 0 Z " fill="#183187" transform="translate(86,430)"/>
<path d="M0 0 C-3.13164723 2.52940738 -6.27808042 4.44920018 -10 6 C-12.1875 5.578125 -12.1875 5.578125 -14 5 C-12.23628182 3.96692229 -10.46374967 2.94887951 -8.6875 1.9375 C-7.70136719 1.36902344 -6.71523438 0.80054688 -5.69921875 0.21484375 C-3 -1 -3 -1 0 0 Z " fill="#293A8A" transform="translate(354,166)"/>
<path d="M0 0 C2.56687367 3.8503105 1.83288724 5.58569763 1 10 C0.01 10.33 -0.98 10.66 -2 11 C-2.66 10.34 -3.32 9.68 -4 9 C-3.01 8.67 -2.02 8.34 -1 8 C-0.67 5.36 -0.34 2.72 0 0 Z " fill="#ECEFF6" transform="translate(532,812)"/>
<path d="M0 0 C0.66 0.33 1.32 0.66 2 1 C1.91253716 2.43861294 1.80434652 3.87597508 1.6875 5.3125 C1.62949219 6.11300781 1.57148438 6.91351562 1.51171875 7.73828125 C0.91793306 10.36272334 0.04219706 11.30820672 -2 13 C-1.85851011 11.3954444 -1.71164314 9.79136233 -1.5625 8.1875 C-1.48128906 7.29417969 -1.40007812 6.40085937 -1.31640625 5.48046875 C-1 3 -1 3 0 0 Z " fill="#051C75" transform="translate(173,559)"/>
<path d="M0 0 C0.99 0.33 1.98 0.66 3 1 C1.02 4.96 -0.96 8.92 -3 13 C-3.33 11.68 -3.66 10.36 -4 9 C-3.34 8.01 -2.68 7.02 -2 6 C-1.29835358 4.01200182 -0.62627128 2.01301483 0 0 Z " fill="#1A2F82" transform="translate(150,423)"/>
<path d="M0 0 C0.33 1.32 0.66 2.64 1 4 C-3.39453125 8.00390625 -3.39453125 8.00390625 -5 9 C-5.99 8.67 -6.98 8.34 -8 8 C-7.34 8 -6.68 8 -6 8 C-5.7525 7.4225 -5.505 6.845 -5.25 6.25 C-3.83316683 3.6997003 -2.12372463 1.98214299 0 0 Z " fill="#203A87" transform="translate(306,339)"/>
<path d="M0 0 C0.66 0 1.32 0 2 0 C0.5140084 4.59306496 -1.85014682 7.43569245 -5 11 C-5.66 10.67 -6.32 10.34 -7 10 C-5.88321917 8.3278148 -4.75633648 6.66237197 -3.625 5 C-2.99851562 4.071875 -2.37203125 3.14375 -1.7265625 2.1875 C-1.15679687 1.465625 -0.58703125 0.74375 0 0 Z " fill="#ACACAE" transform="translate(114,313)"/>
<path d="M0 0 C0.99 0.66 1.98 1.32 3 2 C-1.296875 6.00390625 -1.296875 6.00390625 -3 7 C-4.32 6.67 -5.64 6.34 -7 6 C-4.69 4.02 -2.38 2.04 0 0 Z " fill="#152D7E" transform="translate(357,293)"/>
<path d="M0 0 C-2.1554668 2.47878682 -3.71119485 3.57563804 -7 4 C-7.66 3.67 -8.32 3.34 -9 3 C-9 2.34 -9 1.68 -9 1 C-5.64919071 -1.10976881 -3.77897651 -1.0497157 0 0 Z " fill="#1A3185" transform="translate(507,206)"/>
<path d="M0 0 C0.33 0 0.66 0 1 0 C1.20705455 5.07283639 0.72487541 9.20867943 -1 14 C-1.99 14.495 -1.99 14.495 -3 15 C-2.44854729 9.76119922 -1.57077907 5.02649303 0 0 Z " fill="#AEADAE" transform="translate(16,506)"/>
<path d="M0 0 C0.33 0 0.66 0 1 0 C1.08089542 2.77141717 1.14044062 5.54047819 1.1875 8.3125 C1.21263672 9.09818359 1.23777344 9.88386719 1.26367188 10.69335938 C1.27333984 11.45068359 1.28300781 12.20800781 1.29296875 12.98828125 C1.3086792 13.68477783 1.32438965 14.38127441 1.34057617 15.09887695 C1 17 1 17 -2 20 C-1.34 13.4 -0.68 6.8 0 0 Z " fill="#B3B7D5" transform="translate(936,384)"/>
<path d="M0 0 C0.99 0.33 1.98 0.66 3 1 C-0.12621626 4.39417765 -2.56541027 6.6062718 -7 8 C-6.02133662 6.85373678 -5.04205413 5.70800212 -4.0625 4.5625 C-3.51722656 3.92441406 -2.97195313 3.28632813 -2.41015625 2.62890625 C-1.63204305 1.73008851 -0.84063472 0.84063472 0 0 Z " fill="#223988" transform="translate(314,331)"/>
<path d="M0 0 C0.33 1.32 0.66 2.64 1 4 C-0.75 6.0625 -0.75 6.0625 -3 8 C-3.5775 8.5775 -4.155 9.155 -4.75 9.75 C-5.36875 10.36875 -5.36875 10.36875 -6 11 C-6.66 10.67 -7.32 10.34 -8 10 C-5.36 6.7 -2.72 3.4 0 0 Z " fill="#ADACAE" transform="translate(131,292)"/>
<path d="M0 0 C5.28 0 10.56 0 16 0 C16 0.33 16 0.66 16 1 C12.7 1.33 9.4 1.66 6 2 C6 2.33 6 2.66 6 3 C3.69 2.67 1.38 2.34 -1 2 C-0.67 1.34 -0.34 0.68 0 0 Z " fill="#11368B" transform="translate(598,135)"/>
<path d="M0 0 C1.0169313 2.65498232 1.13022151 3.69155375 0.00390625 6.359375 C-0.47175781 7.14828125 -0.94742188 7.9371875 -1.4375 8.75 C-2.14712891 9.94882812 -2.14712891 9.94882812 -2.87109375 11.171875 C-3.24363281 11.77515625 -3.61617187 12.3784375 -4 13 C-5.0169313 10.34501768 -5.13022151 9.30844625 -4.00390625 6.640625 C-3.52824219 5.85171875 -3.05257812 5.0628125 -2.5625 4.25 C-2.08941406 3.45078125 -1.61632812 2.6515625 -1.12890625 1.828125 C-0.75636719 1.22484375 -0.38382813 0.6215625 0 0 Z " fill="#112478" transform="translate(598,621)"/>
<path d="M0 0 C0.99 0.33 1.98 0.66 3 1 C0.36 3.97 -2.28 6.94 -5 10 C-5.66 9.67 -6.32 9.34 -7 9 C-4.69 6.03 -2.38 3.06 0 0 Z " fill="#162D80" transform="translate(692,470)"/>
<path d="M0 0 C0.66 0 1.32 0 2 0 C1.45276317 3.37462715 0.9451 5.08235 -1 8 C-1.66 8 -2.32 8 -3 8 C-3.33 8.99 -3.66 9.98 -4 11 C-4.33 10.34 -4.66 9.68 -5 9 C-4.00390625 6.8359375 -4.00390625 6.8359375 -2.5625 4.375 C-2.08941406 3.55773437 -1.61632812 2.74046875 -1.12890625 1.8984375 C-0.75636719 1.27195312 -0.38382813 0.64546875 0 0 Z " fill="#0F267B" transform="translate(220,448)"/>
<path d="M0 0 C0.66 0.66 1.32 1.32 2 2 C-0.31 4.31 -2.62 6.62 -5 9 C-5.66 8.34 -6.32 7.68 -7 7 C-2.25 1.125 -2.25 1.125 0 0 Z " fill="#F2F4F9" transform="translate(535,443)"/>
<path d="M0 0 C3.63 0 7.26 0 11 0 C11.33 0.66 11.66 1.32 12 2 C7.545 2.495 7.545 2.495 3 3 C3 2.34 3 1.68 3 1 C2.01 0.67 1.02 0.34 0 0 Z " fill="#0D2E7D" transform="translate(687,138)"/>
<path d="M0 0 C1.9955516 3.99110319 2.19546065 5.69986566 2 10 C1.01 10.33 0.02 10.66 -1 11 C-0.67 7.37 -0.34 3.74 0 0 Z M2 0 C3 4 3 4 3 4 Z " fill="#E2E5F1" transform="translate(392,822)"/>
<path d="M0 0 C0.66 0.33 1.32 0.66 2 1 C1.50769231 7.52307692 1.50769231 7.52307692 -1.0625 9.9375 C-1.701875 10.288125 -2.34125 10.63875 -3 11 C-2.69078116 9.54096742 -2.37751201 8.08279278 -2.0625 6.625 C-1.88847656 5.81289063 -1.71445313 5.00078125 -1.53515625 4.1640625 C-1 2 -1 2 0 0 Z " fill="#D9DCEC" transform="translate(131,468)"/>
<path d="M0 0 C0 0.66 0 1.32 0 2 C-1.24420647 2.5345256 -2.49570936 3.05208611 -3.75 3.5625 C-4.44609375 3.85253906 -5.1421875 4.14257812 -5.859375 4.44140625 C-8.30012784 5.07831803 -9.6403655 4.80248831 -12 4 C-10.75539217 3.32332002 -9.50403104 2.65905281 -8.25 2 C-7.55390625 1.62875 -6.8578125 1.2575 -6.140625 0.875 C-4 0 -4 0 0 0 Z " fill="#D1D4E9" transform="translate(409,189)"/>
<path d="M0 0 C4.95 0.99 4.95 0.99 10 2 C9.34 2.66 8.68 3.32 8 4 C5.27130593 3.96712417 2.7033382 3.43602229 0 3 C0 2.01 0 1.02 0 0 Z " fill="#163286" transform="translate(279,830)"/>
<path d="M0 0 C0.66 0.33 1.32 0.66 2 1 C-0.64 3.64 -3.28 6.28 -6 9 C-6.33 7.68 -6.66 6.36 -7 5 C-6.030625 4.360625 -5.06125 3.72125 -4.0625 3.0625 C-1.23963731 1.3034741 -1.23963731 1.3034741 0 0 Z " fill="#062077" transform="translate(531,512)"/>
<path d="M0 0 C0.75 1.5625 0.75 1.5625 1 4 C-0.13084437 6.50286409 -1.52139516 8.67007722 -3 11 C-3.66 11 -4.32 11 -5 11 C-3.77472971 6.94718288 -2.30119506 3.55639236 0 0 Z " fill="#223584" transform="translate(94,415)"/>
<path d="M0 0 C0.75 1.5625 0.75 1.5625 1 4 C-0.13084437 6.50286409 -1.52139516 8.67007722 -3 11 C-3.66 11 -4.32 11 -5 11 C-3.77472971 6.94718288 -2.30119506 3.55639236 0 0 Z " fill="#1D3081" transform="translate(100,404)"/>
<path d="M0 0 C0.66 0.66 1.32 1.32 2 2 C0.35 3.65 -1.3 5.3 -3 7 C-3.66 6.34 -4.32 5.68 -5 5 C-3.35 3.35 -1.7 1.7 0 0 Z " fill="#1B3685" transform="translate(290,356)"/>
<path d="M0 0 C0.99 0.33 1.98 0.66 3 1 C3.3721042 2.32303717 3.70630173 3.65737935 4 5 C4.66 5.33 5.32 5.66 6 6 C5.34 7.32 4.68 8.64 4 10 C0 3.375 0 3.375 0 0 Z " fill="#1E3587" transform="translate(544,336)"/>
<path d="M0 0 C0 0.99 0 1.98 0 3 C-3.3 2.67 -6.6 2.34 -10 2 C-6.00889681 0.0044484 -4.30013434 -0.19546065 0 0 Z " fill="#2E468F" transform="translate(612,170)"/>
<path d="M0 0 C2.97 0 5.94 0 9 0 C8 2 8 2 6.15234375 2.6328125 C5.42144531 2.79523438 4.69054687 2.95765625 3.9375 3.125 C2.83728516 3.37636719 2.83728516 3.37636719 1.71484375 3.6328125 C1.14894531 3.75398437 0.58304687 3.87515625 0 4 C0 2.68 0 1.36 0 0 Z " fill="#132C82" transform="translate(442,170)"/>
<path d="M0 0 C3.82097239 0.53069061 6.06171403 1.49701566 9 4 C7.3125 4.8125 7.3125 4.8125 5 5 C2.25 2.5625 2.25 2.5625 0 0 Z " fill="#1C378B" transform="translate(264,809)"/>
<path d="M0 0 C1.31223496 3.93670488 0.24296256 6.12488144 -1 10 C-1.66 10 -2.32 10 -3 10 C-2.67 7.36 -2.34 4.72 -2 2 C-1.34 2 -0.68 2 0 2 C0 1.34 0 0.68 0 0 Z " fill="#2F3E8A" transform="translate(548,754)"/>
<path d="M0 0 C0.66 0.33 1.32 0.66 2 1 C1.26418258 2.1549921 0.51069961 3.29874185 -0.25 4.4375 C-0.66765625 5.07558594 -1.0853125 5.71367188 -1.515625 6.37109375 C-3.27248877 8.29902057 -4.46089803 8.61479436 -7 9 C-6.02180976 7.68677212 -5.0424189 6.37443848 -4.0625 5.0625 C-3.51722656 4.33160156 -2.97195313 3.60070312 -2.41015625 2.84765625 C-1 1 -1 1 0 0 Z " fill="#E1E5F2" transform="translate(810,665)"/>
<path d="M0 0 C0.33 0 0.66 0 1 0 C1.25 2.75 1.25 2.75 1 6 C-1 8.375 -1 8.375 -3 10 C-4 7 -4 7 -3.22265625 5.17578125 C-2.1484375 3.45052083 -1.07421875 1.72526042 0 0 Z " fill="#122D84" transform="translate(628,565)"/>
<path d="M0 0 C1 2 1 2 0.25 4.5 C-1 7 -1 7 -4 9 C-4.33 8.01 -4.66 7.02 -5 6 C-3.59554165 3.7363436 -1.8032087 1.9791315 0 0 Z " fill="#0F2C7F" transform="translate(251,403)"/>
<path d="M0 0 C0.65234375 1.796875 0.65234375 1.796875 1 4 C-0.36489377 6.33370072 -2.1419038 8.00594554 -4 10 C-4.33 9.34 -4.66 8.68 -5 8 C-4.00390625 6.0546875 -4.00390625 6.0546875 -2.5625 3.875 C-2.08941406 3.15054687 -1.61632812 2.42609375 -1.12890625 1.6796875 C-0.75636719 1.12539063 -0.38382812 0.57109375 0 0 Z " fill="#B4B3B5" transform="translate(85,355)"/>
<path d="M0 0 C1 3 1 3 -0.125 5.5 C-2.16131229 8.21508305 -4.00479488 9.46192169 -7 11 C-5.22054913 6.95579349 -2.60470327 3.53921513 0 0 Z " fill="#E6E8F4" transform="translate(205,345)"/>
<path d="M0 0 C0.66 0.33 1.32 0.66 2 1 C0.63016497 4.16115776 0.0109362 4.9927092 -3 7 C-3.33 6.01 -3.66 5.02 -4 4 C-2.68 2.68 -1.36 1.36 0 0 Z " fill="#173584" transform="translate(797,346)"/>
<path d="M0 0 C0.66 0.33 1.32 0.66 2 1 C1 4 1 4 -0.875 5 C-1.57625 5.33 -2.2775 5.66 -3 6 C-4.70921589 7.5412312 -4.70921589 7.5412312 -6 9 C-6.66 8.67 -7.32 8.34 -8 8 C-5.36 5.36 -2.72 2.72 0 0 Z " fill="#AEADAF" transform="translate(212,211)"/>
<path d="M0 0 C2.31 0 4.62 0 7 0 C4.14693203 2.32472205 1.45925163 3.7508258 -2 5 C-1.34 3.35 -0.68 1.7 0 0 Z " fill="#1A3186" transform="translate(369,204)"/>
<path d="M0 0 C3.3 0.99 6.6 1.98 10 3 C9.34 3.66 8.68 4.32 8 5 C4.875 4.625 4.875 4.625 2 4 C2 3.34 2 2.68 2 2 C1.34 2 0.68 2 0 2 C0 1.34 0 0.68 0 0 Z " fill="#1B318A" transform="translate(247,819)"/>
<path d="M0 0 C0 0.66 0 1.32 0 2 C-6.0546875 2.9765625 -6.0546875 2.9765625 -8 3 C-8.66 2.34 -9.32 1.68 -10 1 C-6.61981469 -0.04005702 -3.5219721 -0.08004482 0 0 Z " fill="#193388" transform="translate(498,471)"/>
<path d="M0 0 C0.33 1.32 0.66 2.64 1 4 C-0.98 5.32 -2.96 6.64 -5 8 C-5.66 7.67 -6.32 7.34 -7 7 C-4.69 4.69 -2.38 2.38 0 0 Z " fill="#0C2475" transform="translate(184,292)"/>
<path d="M0 0 C0.33 0.99 0.66 1.98 1 3 C-1.3125 4.5625 -1.3125 4.5625 -4 6 C-4.99 5.67 -5.98 5.34 -7 5 C-2.25 1.125 -2.25 1.125 0 0 Z " fill="#152F84" transform="translate(434,240)"/>
<path d="M0 0 C-2.5654594 2.5654594 -4.47686668 2.54046087 -8 3 C-8 2.01 -8 1.02 -8 0 C-5.13822943 -1.43088528 -3.06624227 -0.59991697 0 0 Z " fill="#1F3989" transform="translate(503,835)"/>
<path d="M0 0 C1.0326802 2.78823655 1.04509293 3.8677274 0.0625 6.75 C-0.288125 7.4925 -0.63875 8.235 -1 9 C-3 6 -3 6 -2.75 3.375 C-2.5025 2.59125 -2.255 1.8075 -2 1 C-1.34 0.67 -0.68 0.34 0 0 Z " fill="#123187" transform="translate(182,532)"/>
<path d="M0 0 C0.99 0.66 1.98 1.32 3 2 C-0.51187196 4.40814077 -2.72656908 5.36629408 -7 5 C-4.702779 3.25728062 -2.40133271 1.60088848 0 0 Z " fill="#16328A" transform="translate(520,459)"/>
<path d="M0 0 C0.66 0.33 1.32 0.66 2 1 C-3.14285714 6.57142857 -3.14285714 6.57142857 -7 7 C-4.66666667 4.66666667 -2.33333333 2.33333333 0 0 Z " fill="#E0E2F0" transform="translate(621,433)"/>
<path d="M0 0 C0.99 0.33 1.98 0.66 3 1 C4.1875 4.5625 4.1875 4.5625 5 8 C4.34 8.66 3.68 9.32 3 10 C2.01 6.7 1.02 3.4 0 0 Z " fill="#37478E" transform="translate(552,353)"/>
<path d="M0 0 C0.33 0.99 0.66 1.98 1 3 C-0.21484375 4.82421875 -0.21484375 4.82421875 -1.9375 6.6875 C-2.50339844 7.31011719 -3.06929688 7.93273437 -3.65234375 8.57421875 C-4.09707031 9.04472656 -4.54179688 9.51523437 -5 10 C-5 6.60406522 -4.47834052 5.93380119 -2.5 3.3125 C-2.0359375 2.68988281 -1.571875 2.06726563 -1.09375 1.42578125 C-0.7328125 0.95527344 -0.371875 0.48476563 0 0 Z " fill="#B3B2B4" transform="translate(102,330)"/>
<path d="M0 0 C2.1875 0.3125 2.1875 0.3125 4 1 C1.03 3.475 1.03 3.475 -2 6 C-2.33 5.01 -2.66 4.02 -3 3 C-1.75 1.4375 -1.75 1.4375 0 0 Z " fill="#183586" transform="translate(176,300)"/>
<path d="M0 0 C-1.32 0.33 -2.64 0.66 -4 1 C-4 1.66 -4 2.32 -4 3 C-6.31 3.33 -8.62 3.66 -11 4 C-3.77464789 -1.88732394 -3.77464789 -1.88732394 0 0 Z " fill="#4B569B" transform="translate(523,198)"/>
<path d="M0 0 C0.66 0.33 1.32 0.66 2 1 C2 3.64 2 6.28 2 9 C1.34 9 0.68 9 0 9 C-0.84454356 5.62182575 -1.10844919 3.32534757 0 0 Z " fill="#F5F6F9" transform="translate(388,658)"/>
<path d="M0 0 C1.98 0.495 1.98 0.495 4 1 C3.67 2.65 3.34 4.3 3 6 C2.34 6 1.68 6 1 6 C-0.0625 4.125 -0.0625 4.125 -1 2 C-0.67 1.34 -0.34 0.68 0 0 Z " fill="#13298B" transform="translate(463,586)"/>
<path d="M0 0 C0.66 0 1.32 0 2 0 C2.26785714 8.03571429 2.26785714 8.03571429 0 12 C-0.19477739 10.37585622 -0.38059458 8.75063577 -0.5625 7.125 C-0.66691406 6.22007812 -0.77132812 5.31515625 -0.87890625 4.3828125 C-1 2 -1 2 0 0 Z " fill="#112E7E" transform="translate(116,500)"/>
<path d="M0 0 C1.42944945 2.35438733 2.08661261 3.48032433 1.625 6.25 C1.41875 6.8275 1.2125 7.405 1 8 C0.01 8 -0.98 8 -2 8 C-1.47731534 5.23723823 -0.89130413 2.6739124 0 0 Z " fill="#132F85" transform="translate(121,488)"/>
<path d="M0 0 C0.75 1.75 0.75 1.75 1 4 C-0.9375 6.25 -0.9375 6.25 -3 8 C-3 3.73173127 -2.62386487 3.06117568 0 0 Z " fill="#132C7F" transform="translate(238,421)"/>
<path d="M0 0 C1.65 0 3.3 0 5 0 C4.25 1.9375 4.25 1.9375 3 4 C0.875 4.75 0.875 4.75 -1 5 C-0.67 3.35 -0.34 1.7 0 0 Z " fill="#183281" transform="translate(550,423)"/>
<path d="M0 0 C0.66 0.33 1.32 0.66 2 1 C-1.96 4.465 -1.96 4.465 -6 8 C-6 5 -6 5 -4.6875 3.61328125 C-3.125 2.40885417 -1.5625 1.20442708 0 0 Z " fill="#062479" transform="translate(858,283)"/>
<path d="M0 0 C-3.18762365 2.12508244 -5.26512223 2.5020163 -9 3 C-9.33 2.34 -9.66 1.68 -10 1 C-6.78548731 -0.60725635 -3.56387464 -0.05748185 0 0 Z " fill="#1D2E81" transform="translate(475,842)"/>
<path d="M0 0 C0.99 0.33 1.98 0.66 3 1 C3 2.98 3 4.96 3 7 C2.34 7 1.68 7 1 7 C0.67 4.69 0.34 2.38 0 0 Z " fill="#F5F6FA" transform="translate(382,640)"/>
<path d="M0 0 C0.66 1.32 1.32 2.64 2 4 C1.01 5.485 1.01 5.485 0 7 C-0.99 7 -1.98 7 -3 7 C-1.125 2.25 -1.125 2.25 0 0 Z " fill="#152E7F" transform="translate(622,575)"/>
<path d="M0 0 C0.33 0 0.66 0 1 0 C1.24954005 1.43410368 1.47392642 2.87260072 1.6875 4.3125 C1.87892578 5.51326172 1.87892578 5.51326172 2.07421875 6.73828125 C2 9 2 9 -1 12 C-0.67 8.04 -0.34 4.08 0 0 Z " fill="#113483" transform="translate(105,548)"/>
<path d="M0 0 C0.66 0.33 1.32 0.66 2 1 C1.34 2.65 0.68 4.3 0 6 C-0.99 6 -1.98 6 -3 6 C-2.42655063 3.13275314 -2.1385485 2.1385485 0 0 Z " fill="#203B88" transform="translate(167,310)"/>
<path d="M0 0 C-2.97 1.32 -5.94 2.64 -9 4 C-9.33 3.34 -9.66 2.68 -10 2 C-4.5 -1.125 -4.5 -1.125 0 0 Z " fill="#1E2B82" transform="translate(421,183)"/>
<path d="M0 0 C0 0.99 0 1.98 0 3 C-1.8125 3.625 -1.8125 3.625 -4 4 C-4.99 3.34 -5.98 2.68 -7 2 C-4.35261084 0.5393715 -3.10551666 0 0 0 Z " fill="#243C8E" transform="translate(400,143)"/>
</svg>
